<?xml version="1.0" encoding="iso-8859-1"?>
<!-- Generator: Adobe Illustrator 18.0.0, SVG Export Plug-In . SVG Version: 6.00 Build 0)  -->
<!DOCTYPE svg PUBLIC "-//W3C//DTD SVG 1.1//EN" "http://www.w3.org/Graphics/SVG/1.1/DTD/svg11.dtd">
<svg version="1.1" id="Capa_1" xmlns="http://www.w3.org/2000/svg" xmlns:xlink="http://www.w3.org/1999/xlink" x="0px" y="0px"
	 viewBox="0 0 51 51" style="enable-background:new 0 0 51 51;" xml:space="preserve">
<g>
	<path d="M42.514,2.87c0-0.858,0-2.87-17.015-2.87S8.485,2.012,8.485,2.86C8.469,4.466,8.181,42.262,15.44,49.592
		C16.365,50.526,17.399,51,18.514,51h13.971c1.122,0,2.163-0.477,3.093-1.417C42.852,42.229,42.531,4.464,42.514,2.87z
		 M10.482,3.211c3.1-1.646,26.935-1.646,30.036,0c0.031,3.677-0.057,9.333-0.395,15.429c-1.191,1.175-2.124,1.731-2.928,1.739
		c-0.005,0-0.011,0-0.017,0c-0.81,0-1.741-0.555-2.93-1.743l-0.707-0.707l-0.707,0.707c-1.211,1.212-2.267,1.805-3.227,1.813
		c-0.008,0-0.015,0.001-0.022,0.001c-0.947,0-1.977-0.57-3.147-1.741l-0.707-0.707l-0.707,0.707
		c-2.389,2.39-4.063,2.407-6.397,0.073l-0.707-0.707l-0.707,0.707c-1.17,1.171-2.197,1.729-3.17,1.671
		c-0.928-0.044-1.961-0.641-3.152-1.815C10.547,12.546,10.454,6.893,10.482,3.211z M34.156,48.177C33.608,48.73,33.061,49,32.485,49
		H18.514c-0.569,0-1.11-0.267-1.653-0.815c-3.369-3.402-5.036-15.462-5.802-26.801c0.982,0.673,1.926,1.021,2.887,1.068
		c1.32,0.062,2.631-0.461,3.971-1.6c1.312,1.123,2.58,1.672,3.855,1.672c0.014,0,0.028-0.001,0.042-0.001
		c1.287-0.012,2.575-0.583,3.917-1.741c1.325,1.134,2.648,1.665,3.894,1.668c1.285-0.012,2.571-0.582,3.912-1.737
		c1.307,1.146,2.454,1.667,3.638,1.667c0.013,0,0.025,0,0.038-0.001c0.901-0.008,1.786-0.323,2.741-0.983
		C39.194,32.72,37.532,44.764,34.156,48.177z"/>
	<circle cx="28.754" cy="27.274" r="1"/>
	<circle cx="30.754" cy="32.274" r="1"/>
	<circle cx="33.754" cy="37.274" r="1"/>
	<circle cx="25.754" cy="34.274" r="1"/>
	<circle cx="32.754" cy="26.274" r="1"/>
	<path d="M18.568,35.367c0.764,0,1.487-0.284,2.044-0.807l2.192-2.048c1.208-1.129,1.273-3.031,0.144-4.239L20.9,26.081
		c-1.13-1.208-3.032-1.274-4.24-0.144l-2.192,2.048c-0.584,0.545-0.921,1.288-0.948,2.091c-0.027,0.802,0.258,1.565,0.804,2.149
		l2.048,2.191c0.545,0.584,1.288,0.921,2.09,0.948C18.497,35.366,18.533,35.367,18.568,35.367z M15.785,30.86
		c-0.181-0.193-0.275-0.448-0.266-0.717s0.121-0.516,0.314-0.697l2.192-2.048c0.193-0.18,0.438-0.269,0.683-0.269
		c0.268,0,0.534,0.106,0.731,0.316l2.048,2.192c0.376,0.402,0.354,1.036-0.048,1.413L19.246,33.1
		c-0.193,0.182-0.446,0.26-0.716,0.267c-0.269-0.009-0.516-0.121-0.697-0.314L15.785,30.86z"/>
	<path d="M29.9,39.316c-1.13-1.208-3.032-1.273-4.24-0.144l-2.192,2.048c-0.584,0.545-0.921,1.288-0.948,2.091
		c-0.027,0.802,0.258,1.565,0.804,2.149l2.048,2.191c0.59,0.632,1.391,0.951,2.193,0.951c0.734,0,1.469-0.268,2.047-0.807
		l2.191-2.049c0.584-0.546,0.92-1.288,0.948-2.09s-0.258-1.565-0.804-2.149L29.9,39.316z M30.439,44.287l-2.192,2.049
		c-0.403,0.376-1.037,0.354-1.414-0.049l-2.048-2.191c-0.181-0.193-0.275-0.448-0.266-0.717s0.121-0.516,0.314-0.697l2.192-2.048
		c0.193-0.18,0.438-0.269,0.683-0.269c0.268,0,0.534,0.106,0.731,0.316l2.048,2.192C30.863,43.276,30.842,43.91,30.439,44.287z"/>
	<circle cx="17.754" cy="40.367" r="1"/>
	<circle cx="19.754" cy="46.367" r="1"/>
</g>
<g>
</g>
<g>
</g>
<g>
</g>
<g>
</g>
<g>
</g>
<g>
</g>
<g>
</g>
<g>
</g>
<g>
</g>
<g>
</g>
<g>
</g>
<g>
</g>
<g>
</g>
<g>
</g>
<g>
</g>
</svg>
