<?xml version="1.0" encoding="iso-8859-1"?>
<!-- Generator: Adobe Illustrator 19.0.0, SVG Export Plug-In . SVG Version: 6.00 Build 0)  -->
<svg version="1.1" id="Capa_1" xmlns="http://www.w3.org/2000/svg" xmlns:xlink="http://www.w3.org/1999/xlink" x="0px" y="0px"
	 viewBox="0 0 512 512" style="enable-background:new 0 0 512 512;" xml:space="preserve">
<g>
	<g>
		<path d="M480,80H32C14.368,80,0,94.368,0,112v288c0,17.632,14.368,32,32,32h448c17.632,0,32-14.368,32-32V112
			C512,94.368,497.632,80,480,80z M194.464,336H178.88l26.656-160h73.824c9.568,0,18.208,4,24.352,11.2
			c6.144,7.232,8.768,16.768,7.232,26.176C308.416,228.544,294.816,240,279.36,240H224c-7.84,0-14.496,5.664-15.776,13.376
			L194.464,336z M340.256,227.296c2.432,5.536,3.776,11.648,2.688,18.08C340.416,260.544,326.816,272,311.36,272h-32
			C307.712,272,331.968,253.632,340.256,227.296z M210.944,368l0.096-0.544c6.432-1.28,11.616-6.176,12.736-12.832L237.536,272H256
			c-7.84,0-14.496,5.664-15.776,13.376L226.464,368H210.944z M480,416v-16H240c7.84,0,14.496-5.664,15.776-13.376L269.536,304
			h41.824c31.424,0,57.984-22.432,63.136-53.344c4.928-29.152-10.784-57.152-37.024-68.704c-2.464-5.504-5.408-10.784-9.376-15.488
			C315.936,152.192,298.176,144,279.36,144H192c-7.84,0-14.496,5.664-15.776,13.376l-32,192c-0.768,4.64,0.544,9.376,3.584,12.96
			C150.816,365.952,155.296,368,160,368h18.496l-2.272,13.312c-0.768,4.672,0.512,9.408,3.552,13.024
			c3.04,3.584,7.52,5.664,12.224,5.664H32V112h448v288c0,0,0,0,0.032,0L480,416z"/>
	</g>
</g>
<g>
</g>
<g>
</g>
<g>
</g>
<g>
</g>
<g>
</g>
<g>
</g>
<g>
</g>
<g>
</g>
<g>
</g>
<g>
</g>
<g>
</g>
<g>
</g>
<g>
</g>
<g>
</g>
<g>
</g>
</svg>
