<?xml version="1.0" encoding="iso-8859-1"?>
<!-- Generator: Adobe Illustrator 21.0.0, SVG Export Plug-In . SVG Version: 6.00 Build 0)  -->
<svg xmlns="http://www.w3.org/2000/svg" xmlns:xlink="http://www.w3.org/1999/xlink" version="1.1" id="Capa_1" x="0px" y="0px" viewBox="0 0 501.999 501.999" style="enable-background:new 0 0 501.999 501.999;" xml:space="preserve" width="512" height="512">
<g>
	<path style="fill-rule:evenodd;clip-rule:evenodd;" d="M501.261,462.449l-80.003-196.558c-2.081-5.115-7.915-7.575-13.031-5.493   c-5.115,2.082-7.574,7.917-5.492,13.032l74.398,182.789H24.866l7.394-18.167c2.082-5.115-0.377-10.95-5.492-13.032   c-5.116-2.083-10.95,0.378-13.031,5.493L0.738,462.45c-1.255,3.083-0.894,6.589,0.964,9.351c1.858,2.762,4.969,4.419,8.298,4.419   h482c3.329,0,6.439-1.657,8.298-4.419C502.155,469.038,502.516,465.533,501.261,462.449z"/>
	<path style="fill-rule:evenodd;clip-rule:evenodd;" d="M49.393,369.434c1.234,0.502,2.511,0.741,3.766,0.741   c3.946,0,7.687-2.353,9.266-6.232l76.647-188.313h59.623h104.608h59.624l9.643,23.69c2.081,5.115,7.913,7.574,13.031,5.492   c5.115-2.081,7.574-7.916,5.492-13.031l-12.178-29.921c-1.533-3.767-5.194-6.23-9.262-6.23h-45.587   c8.076-13.223,12.394-28.437,12.394-44.388c0-47.123-38.338-85.461-85.461-85.461s-85.461,38.338-85.461,85.461   c0,15.95,4.317,31.165,12.393,44.388h-45.586c-4.067,0-7.729,2.464-9.262,6.23L43.901,356.402   C41.819,361.517,44.278,367.352,49.393,369.434z M185.539,111.241c0-36.096,29.365-65.461,65.461-65.461   s65.461,29.365,65.461,65.461c0,16.653-6.133,32.27-17.35,44.388h-96.224C191.671,143.511,185.539,127.894,185.539,111.241z"/>
	<path style="fill-rule:evenodd;clip-rule:evenodd;" d="M320.093,267.847c8.48,0,16.551,2.138,23.987,6.354   c4.802,2.723,10.906,1.037,13.631-3.767c2.724-4.804,1.037-10.907-3.768-13.631c-10.333-5.858-22.038-8.955-33.85-8.955   c-39.215,0-71.119,33.375-71.119,74.398s31.904,74.398,71.119,74.398c11.813,0,23.517-3.097,33.85-8.955   c3.133-1.776,5.068-5.099,5.068-8.699v-36.793c0-5.522-4.478-10-10-10h-26.265c-5.522,0-10,4.478-10,10c0,5.523,4.478,10,10,10   h16.265v20.604c-5.988,2.553-12.329,3.843-18.919,3.843c-28.188,0-51.119-24.403-51.119-54.398S291.906,267.847,320.093,267.847z"/>
	<path style="fill-rule:evenodd;clip-rule:evenodd;" d="M227.454,250.26c-4.191-3.598-10.504-3.117-14.101,1.073l-46.385,54.026   c-0.108,0.12-0.213,0.242-0.314,0.366l-3.668,4.272v-52.151c0-5.522-4.478-10-10-10c-5.522,0-10,4.477-10,10v79.085   c0,0.04,0,0.08,0,0.12v49.592c0,5.523,4.478,10,10,10c5.522,0,10-4.477,10-10v-45.943l10.135-11.805l39.335,63.042   c1.896,3.04,5.157,4.708,8.494,4.708c1.808,0,3.638-0.49,5.284-1.518c4.686-2.923,6.113-9.092,3.19-13.777l-42.651-68.357   l41.754-48.633C232.125,260.171,231.644,253.858,227.454,250.26z"/>
	<path style="fill-rule:evenodd;clip-rule:evenodd;" d="M38.081,407.227c5.508,0,10-4.492,10-10c0-5.508-4.492-10-10-10   c-5.508,0-10,4.492-10,10C28.081,402.735,32.573,407.227,38.081,407.227z"/>
	<path style="fill-rule:evenodd;clip-rule:evenodd;" d="M386.914,232.605c0,5.508,4.492,10.001,10,10.001   c5.508,0,10-4.493,10-10.001c0-5.507-4.492-10-10-10C391.406,222.605,386.914,227.098,386.914,232.605z"/>
</g>















</svg>
